# xmcd CD database file
#
# Track frame offsets:
#	183
#	18880
#	31660
#	43415
#	55280
#	70163
#	84438
#	96620
#	110903
#	122635
#	137620
#	152793
#	167143
#	180013
#	194073
#	206880
#	221210
#	232695
#	249320
#	263498
#
# Disc length: 3696 seconds
#
# Revision: 0
# Processed by: cddbd v1.4PL0 Copyright (c) Steve Scherf et al.
# Submitted via: CDex 1.40Beta9
#
DISCID=1a0e6e14
DTITLE=Various Artist - An Hour Of Dutch Country
DYEAR=1987
DGENRE=Country
TTITLE0=Ruud Hermans and Jony De Boer - Up Where We Belong
TTITLE1=Major Dundee Band - The Longer The Distance
TTITLE2=Ben Steneker - Some Broken Hearts Never Mend
TTITLE3=Freddy Casby - Kilometre-Eater
TTITLE4=Tielman Brothers - Blue Bayou
TTITLE5=The Walkers - Oh Lonesome Me
TTITLE6=Hank Burns - Can't Help Falling In Love
TTITLE7=Ben Steneker and Aurora - If I Needed You
TTITLE8=Henry St. John - Boodle-An' Shake
TTITLE9=Freddy Casby - Distant Island
TTITLE10=Ruud Hermans and Nathalie Shelar - Two Of A Kind
TTITLE11=Major Dundee Band - Red River Rosie
TTITLE12=Ben Steneker - The French Song
TTITLE13=Sweet Reaction - Daddy
TTITLE14=Tulsa - You're My Best Friend
TTITLE15=The Walkers - I Was't Born In Tennessee 
TTITLE16=Peter Hill - I Love You Because
TTITLE17=Canyon Drive Band - Son Of A Rotten Gambler
TTITLE18=Patricia Linsday - Two Hearts On A Tree
TTITLE19=Early Bird - Mother Played The Dobro
EXTD=YEAR: 1987 ID3G: 2
EXTT0=
EXTT1=
EXTT2=
EXTT3=
EXTT4=
EXTT5=
EXTT6=
EXTT7=
EXTT8=
EXTT9=
EXTT10=
EXTT11=
EXTT12=
EXTT13=
EXTT14=
EXTT15=
EXTT16=
EXTT17=
EXTT18=
EXTT19=
PLAYORDER=
